<svg width="17" height="17" viewBox="0 0 17 17" fill="none" xmlns="http://www.w3.org/2000/svg">
<path d="M14.546 9.0751H13.2313C13.3653 9.442 13.4385 9.83795 13.4385 10.2506V15.2195C13.4385 15.3915 13.4086 15.5567 13.3541 15.7103H15.5276C16.3395 15.7103 17.0001 15.0498 17.0001 14.2379V11.5291C17.0001 10.176 15.8992 9.0751 14.546 9.0751Z" fill="white"/>
<path d="M3.56154 10.2507C3.56154 9.83794 3.63475 9.44203 3.76876 9.07513H2.45405C1.10089 9.07513 0 10.176 0 11.5292V14.2379C0 15.0498 0.660511 15.7104 1.47243 15.7104H3.64598C3.59149 15.5567 3.56154 15.3916 3.56154 15.2195V10.2507Z" fill="white"/>
<path d="M10.0029 7.7966H6.99726C5.6441 7.7966 4.54321 8.89749 4.54321 10.2506V15.2195C4.54321 15.4905 4.76295 15.7103 5.03402 15.7103H11.9661C12.2372 15.7103 12.4569 15.4906 12.4569 15.2195V10.2506C12.4569 8.89749 11.356 7.7966 10.0029 7.7966Z" fill="white"/>
<path d="M8.5 1.28958C6.87265 1.28958 5.54871 2.61353 5.54871 4.24091C5.54871 5.34475 6.15795 6.30881 7.05769 6.81496C7.48445 7.05502 7.97645 7.19221 8.5 7.19221C9.02354 7.19221 9.51555 7.05502 9.94231 6.81496C10.8421 6.30881 11.4513 5.34472 11.4513 4.24091C11.4513 2.61356 10.1273 1.28958 8.5 1.28958Z" fill="white"/>
<path d="M3.31766 4.04047C2.10059 4.04047 1.11047 5.03059 1.11047 6.24765C1.11047 7.46471 2.10059 8.45483 3.31766 8.45483C3.62638 8.45483 3.92036 8.39088 4.18741 8.27593C4.64914 8.07714 5.02984 7.72526 5.26542 7.28448C5.43077 6.97513 5.52484 6.62221 5.52484 6.24765C5.52484 5.03062 4.53472 4.04047 3.31766 4.04047Z" fill="white"/>
<path d="M13.6824 4.04047C12.4653 4.04047 11.4752 5.03059 11.4752 6.24765C11.4752 6.62225 11.5693 6.97516 11.7346 7.28448C11.9702 7.72529 12.3509 8.07718 12.8126 8.27593C13.0797 8.39088 13.3737 8.45483 13.6824 8.45483C14.8995 8.45483 15.8896 7.46471 15.8896 6.24765C15.8896 5.03059 14.8995 4.04047 13.6824 4.04047Z" fill="white"/>
</svg>
