<svg width="17" height="17" viewBox="0 0 17 17" fill="none" xmlns="http://www.w3.org/2000/svg">
<path d="M4.81897 2.64828C3.24906 2.64828 2.52645 4.63538 3.78145 5.63479C4.20927 4.49241 5.06095 3.67216 6.17746 3.34839C5.87204 2.92616 5.37858 2.64828 4.81897 2.64828Z" fill="white"/>
<path d="M1.57575 5.3238C1.63973 5.5291 1.72262 5.72605 1.8211 5.91265L1.3054 6.42863C1.16691 6.56712 1.16691 6.7919 1.3054 6.93068L2.21439 7.83996C2.28059 7.90616 2.37129 7.94341 2.46582 7.94341C2.55932 7.94341 2.64941 7.90616 2.71676 7.83996L3.23188 7.32397C3.30919 7.36488 3.39488 7.38996 3.47494 7.42524C3.47494 7.41937 3.47437 7.41328 3.47437 7.4074C3.47437 6.98574 3.5228 6.58797 3.60902 6.21445C2.98707 5.81417 2.57207 5.11936 2.57207 4.32608C2.57207 3.08691 3.58008 2.07862 4.81895 2.07862C5.65784 2.07862 6.38213 2.54564 6.76876 3.22795C7.18154 3.17676 7.56928 3.17676 8.03601 3.26495C7.97597 3.08333 7.90533 2.90558 7.81685 2.73897L8.33255 2.22274C8.39982 2.15625 8.43707 2.06583 8.43707 1.97184C8.43707 1.8778 8.39982 1.78742 8.33255 1.72094L7.42406 0.812234C7.35456 0.742703 7.26386 0.708206 7.17319 0.708206C7.08249 0.708206 6.99183 0.742703 6.92283 0.812234L6.40549 1.32847C6.2186 1.22946 6.02222 1.14656 5.81642 1.08398V0.354641C5.81642 0.158836 5.65841 0 5.46204 0H4.17645C3.98118 0 3.82148 0.158836 3.82148 0.354641V1.08395C3.61622 1.14653 3.41981 1.22942 3.23235 1.32843L2.71676 0.812772C2.64719 0.743241 2.55653 0.708744 2.46582 0.708744C2.37516 0.708744 2.28396 0.743241 2.21496 0.812485L1.3054 1.72119C1.2392 1.78796 1.20194 1.87805 1.20194 1.97237C1.20194 2.06666 1.2392 2.15679 1.3054 2.22327L1.8211 2.73922C1.72258 2.92614 1.63973 3.12281 1.5769 3.32807H0.848127C0.651749 3.32807 0.493164 3.48716 0.493164 3.68325V4.96887C0.493164 5.16439 0.651749 5.3238 0.848127 5.3238H1.57575Z" fill="white"/>
<path d="M12.7124 12.203C13.2809 11.8912 13.6714 11.2943 13.6714 10.6016C13.6714 9.59083 12.8487 8.76868 11.8379 8.76868C11.4824 8.76868 11.1531 8.87493 10.8716 9.05071C10.7031 9.72159 10.4377 10.3633 10.0906 10.9207C11.0746 11.1057 11.9775 11.5538 12.7124 12.203Z" fill="white"/>
<path d="M16.5063 9.908C16.5063 9.69633 16.3344 9.52495 16.1236 9.52495H15.337C15.2691 9.30325 15.179 9.09075 15.0722 8.88911L15.629 8.33229C15.7014 8.2605 15.7414 8.16317 15.7414 8.06165C15.7414 7.96009 15.7013 7.86273 15.629 7.79073L14.6488 6.81023C14.5743 6.73537 14.4758 6.69782 14.3779 6.69782C14.28 6.69782 14.1821 6.73537 14.1076 6.81023L13.5496 7.36734C13.3482 7.26052 13.1363 7.171 12.9137 7.10337V6.31678C12.9137 6.1054 12.7429 5.93402 12.5316 5.93402H11.1447C11.0518 5.93402 10.97 5.97128 10.9033 6.02637C11.0201 6.45248 11.0841 6.91451 11.0841 7.40739C11.0841 7.7203 11.0596 8.03801 11.014 8.35392C11.2721 8.25878 11.5469 8.19903 11.8379 8.19903C13.163 8.19903 14.2411 9.27689 14.2411 10.6016C14.2411 11.4484 13.7988 12.1905 13.1352 12.6185C13.618 13.1481 14.0019 13.7765 14.2517 14.4804C14.2928 14.4946 14.3356 14.5049 14.3785 14.5049C14.4764 14.5049 14.5743 14.4677 14.6494 14.3928L15.6302 13.4123C15.702 13.3405 15.7414 13.2432 15.7414 13.1417C15.7414 13.0402 15.702 12.9428 15.6302 12.8708L15.0722 12.3136C15.179 12.1123 15.2691 11.8997 15.337 11.6778H16.1236C16.2248 11.6778 16.3233 11.6378 16.3945 11.5654C16.4663 11.4939 16.5069 11.3963 16.5069 11.2948L16.5063 9.908Z" fill="white"/>
<path d="M13.4706 14.8271C12.8759 13.0772 11.3044 11.8737 9.49028 11.7099C8.88281 12.3532 8.13068 12.7613 7.27894 12.7613C6.42784 12.7613 5.67514 12.3532 5.06824 11.7099C3.25305 11.8737 1.68149 13.0772 1.08677 14.8273L0.758031 15.795C0.663998 16.0735 0.709026 16.3803 0.8804 16.6192C1.05174 16.8581 1.32768 17 1.62138 17H12.936C13.2302 17 13.5062 16.8581 13.6775 16.6192C13.8483 16.3803 13.894 16.0735 13.7993 15.795L13.4706 14.8271Z" fill="white"/>
<path d="M4.32886 7.4074C4.32886 9.57784 5.65009 11.9068 7.27889 11.9068C8.90834 11.9068 10.2295 9.57784 10.2295 7.4074C10.2295 2.90833 4.32886 2.89941 4.32886 7.4074Z" fill="white"/>
</svg>
